<svg  id="visual" viewBox="0 0 900 600" width="900" height="600" xmlns="http://www.w3.org/2000/svg"
 xmlns:xlink="http://www.w3.org/1999/xlink" version="1.1"><path d="M0 427L21.5 433.5C43 440 86 453 128.8 459.7C171.7 466.3 214.3 466.7 257.2 464C300 461.3 343 455.7 385.8 449.3C428.7 443 471.3 436 514.2 433.8C557 431.7 600 434.3 642.8 438.7C685.7 443 728.3 449 771.2 447C814 445 857 435 878.5 430L900 425L900 601L878.5 601C857 601 814 601 771.2 601C728.3 601 685.7 601 642.8 601C600 601 557 601 514.2 601C471.3 601 428.7 601 385.8 601C343 601 300 601 257.2 601C214.3 601 171.7 601 128.8 601C86 601 43 601 21.5 601L0 601Z" fill="#0066FF" stroke-linecap="round" stroke-linejoin="miter"></path></svg>