<svg id="visual" viewBox="0 0 900 360" width="900" height="360" xmlns="http://www.w3.org/2000/svg" xmlns:xlink="http://www.w3.org/1999/xlink" version="1.1"><path d="M0 239L21.5 249.2C43 259.3 86 279.7 128.8 285.8C171.7 292 214.3 284 257.2 284.7C300 285.3 343 294.7 385.8 294.7C428.7 294.7 471.3 285.3 514.2 283.8C557 282.3 600 288.7 642.8 285.8C685.7 283 728.3 271 771.2 270.7C814 270.3 857 281.7 878.5 287.3L900 293L900 361L878.5 361C857 361 814 361 771.2 361C728.3 361 685.7 361 642.8 361C600 361 557 361 514.2 361C471.3 361 428.7 361 385.8 361C343 361 300 361 257.2 361C214.3 361 171.7 361 128.8 361C86 361 43 361 21.5 361L0 361Z" fill="#0066FF" stroke-linecap="round" stroke-linejoin="miter"></path></svg>